<svg xmlns="http://www.w3.org/2000/svg" viewBox="0 0 602.7 913.4">
  <path d="m311 818 8-8 99 85-15 16Zm-158-78c52-12 104-17 124 51a66 66 0 0 1-52 12c-28-7-52-34-72-63Zm154-102c28 51 50 105 7 163-45-40-29-103-7-163Zm-198-4c51 0 103 7 111 81-15 5-28 6-39 3-33-7-55-44-72-84Zm170-70c11 60 18 122-37 162-30-57 1-113 37-162Zm-23-78c2 63-1 126-61 154-20-64 18-113 61-154ZM85 520c50 13 98 32 95 107a69 69 0 0 1-26-1c-39-9-57-56-69-106Zm8-105c48 20 93 46 82 121a72 72 0 0 1-16-2c-45-10-59-64-66-119Zm170-44c-4 63-13 127-74 146-14-66 29-110 74-146Zm-92 72c-52-27-48-92-36-154 36 41 69 87 36 154Zm23-52Zm98-125c-15 62-36 123-98 125-1-70 48-102 98-125Zm-87-103c21 56 37 114-12 165-39-48-16-109 12-165Zm44 94c15-70 67-86 119-92-27 54-58 106-113 94l-6-2Zm38-205c11 60 16 123-40 161-29-57 3-113 40-161Zm124-1c-23 60-51 116-111 107 8-71 59-93 111-107Z"/>
</svg>