<svg xmlns="http://www.w3.org/2000/svg" viewBox="0 0 206 206">
	<g transform="translate(-33 -33)"><circle cx="103" cy="103" r="103" transform="translate(33 33)" fill="#ffe300"/><g fill="#000"><path d="M178 227a137 137 0 0 1 1-27 73 73 0 0 1 5-18 39 39 0 0 1 5-9 16 16 0 0 1 3-3 2 2 0 0 1 1 0 30 30 0 0 0 11-4 23 23 0 0 0 7-8 25 25 0 0 0 3-13 8 8 0 0 0-1-5 10 10 0 0 0-5-3 17 17 0 0 0-7-1 10 10 0 0 0-6 3c-2 2-4 6-5 11a55 55 0 0 0 0 8 2 2 0 0 1-2 2h-11a2 2 0 0 1-2-2v-44a43 43 0 0 0-13-9 56 56 0 0 0-13-5 64 64 0 0 0-14-1c-2 3-7 7-13 9a44 44 0 0 1-21 2 29 29 0 0 1-8-3 22 22 0 0 1-6-5c-4-4-6-10-6-17a22 22 0 0 1 6-16 43 43 0 0 1 14-9 81 81 0 0 1 19-6 2 2 0 0 1 2 2v6c5-3 15-7 32-5a2 2 0 0 1 1 4l-7 8h5a84 84 0 0 1 11 2 76 76 0 0 1 12 4 59 59 0 0 1 32 34 79 79 0 0 1 4 20l-4 1a75 75 0 0 0-4-20 57 57 0 0 0-8-14 56 56 0 0 0-22-17 71 71 0 0 0-11-4 79 79 0 0 0-10-2 63 63 0 0 0-9 0 2 2 0 0 1-2-4l8-8a62 62 0 0 0-12 0 40 40 0 0 0-9 3 19 19 0 0 0-7 4 2 2 0 0 1-3 0 2 2 0 0 1-1-2v-7a79 79 0 0 0-16 5 39 39 0 0 0-12 8 20 20 0 0 0-4 6 17 17 0 0 0-1 7c0 6 1 11 5 14a18 18 0 0 0 5 4 25 25 0 0 0 7 3 40 40 0 0 0 19-2c6-2 10-5 11-8a2 2 0 0 1 2-1 65 65 0 0 1 16 1 60 60 0 0 1 14 5 46 46 0 0 1 14 11 2 2 0 0 1 1 1v43h7a60 60 0 0 1 0-7c1-6 3-11 6-13a14 14 0 0 1 8-4 20 20 0 0 1 10 2 14 14 0 0 1 6 4 12 12 0 0 1 2 7 29 29 0 0 1-4 15 27 27 0 0 1-8 9 34 34 0 0 1-12 5 17 17 0 0 0-2 2 36 36 0 0 0-5 8 70 70 0 0 0-4 17 134 134 0 0 0-1 26Zm-57-7c-9 0-17-2-24-6a34 34 0 0 1-13-16 47 47 0 0 1-3-12 37 37 0 0 0-3-8c-2-5-4-11-3-18a10 10 0 0 1 6-7 15 15 0 0 1-4-5 16 16 0 0 1-2-12 14 14 0 0 1 1-3 30 30 0 0 1-3-10 25 25 0 0 1 1-11 27 27 0 0 1 7-12l3 3a23 23 0 0 0-6 10 21 21 0 0 0-1 9 25 25 0 0 0 3 9 2 2 0 0 1 0 3 10 10 0 0 0-1 3 12 12 0 0 0 1 9 11 11 0 0 0 8 6 38 38 0 0 1 6 0 2 2 0 1 1 1 4 22 22 0 0 1-7 0 20 20 0 0 0-2 0c-4 1-6 2-7 5-1 6 1 11 3 16a40 40 0 0 1 3 8 44 44 0 0 0 3 12 30 30 0 0 0 11 13c5 4 12 6 19 6 9 0 19-1 31-5l1 4q-16 5-29 5Z"/><path d="M117 200a16 16 0 0 1-4 0 21 21 0 0 1-6-3 27 27 0 0 1-5-5 2 2 0 0 1-1-1v-10a37 37 0 0 1-13-6 2 2 0 0 1 1-4 26 26 0 0 0 5-1 11 11 0 0 0 4-3 23 23 0 0 1-2-1l-4-7a7 7 0 0 1 1-4 10 10 0 0 1 9-6 15 15 0 0 1 8 3 24 24 0 0 1 4 3l-3 3 1-2-1 2a20 20 0 0 0-3-3 12 12 0 0 0-6-2 6 6 0 0 0-4 2 4 4 0 0 0-2 3c1 3 5 6 6 7a2 2 0 0 1 1 3l-8 6a30 30 0 0 0 7 3 23 23 0 0 0 11 0 27 27 0 0 0 9-3 40 40 0 0 0 7-6 46 46 0 0 0 6-8 2 2 0 0 1 1-1 10 10 0 0 1 4 0 17 17 0 0 1 9 3 2 2 0 0 1 0 3 83 83 0 0 1-7 15 55 55 0 0 1-8 12 28 28 0 0 1-14 8 15 15 0 0 1-3 0Zm-12-10a24 24 0 0 0 4 4 17 17 0 0 0 5 2 11 11 0 0 0 6 0 24 24 0 0 0 11-7 44 44 0 0 0 5-6h-31Zm15-11h18l1-1a82 82 0 0 0 6-13 12 12 0 0 0-5-2 8 8 0 0 0-2 0 51 51 0 0 1-6 7 44 44 0 0 1-8 7 34 34 0 0 1-4 2Z"/><path d="m138 183-4 5-3 4c-14-6-20 3-20 3l-8-5v-7Zm-35-30a6 6 0 0 1-1 0l1-4 2-2a14 14 0 0 0 1-8 17 17 0 0 0-3-8 10 10 0 0 0-4-3 11 11 0 0 0-4-1c-5-1-10 2-15 6l-2-2a27 27 0 0 1 8-6 20 20 0 0 1 9-2 14 14 0 0 1 11 5 21 21 0 0 1 4 11 18 18 0 0 1-2 10 8 8 0 0 1-2 3 6 6 0 0 1-3 1Zm92 5a18 18 0 0 1-2-5 12 12 0 0 1 1-5 10 10 0 0 1 9-7 9 9 0 0 1 5 1 12 12 0 0 1 4 3l-4 2a8 8 0 0 0-2-2 5 5 0 0 0-6 1 6 6 0 0 0-2 3 8 8 0 0 0-1 3 14 14 0 0 0 2 4Z"/><path d="M94 155a12 12 0 0 1-6-4 11 11 0 0 1-3-7 11 11 0 0 1 3-8 12 12 0 0 1 9-3 12 12 0 0 1 8 3 11 11 0 0 1 3 8 11 11 0 0 1-2 6 14 14 0 0 0-3 0 13 13 0 0 0-6 1 5 5 0 0 0-3 4Zm5-17a5 5 0 0 0-5 3 5 5 0 0 0 4 6 6 6 0 0 0 1 0 5 5 0 0 0 5-3 4 4 0 0 0-1-3 5 5 0 0 0-3-3 6 6 0 0 0-1 0Zm55 19a26 26 0 0 0-10-5h-1a11 11 0 0 1-2-6 11 11 0 0 1 3-8 12 12 0 0 1 9-3 12 12 0 0 1 8 3 11 11 0 0 1 3 8 11 11 0 0 1 0 3 23 23 0 0 1-9 8 12 12 0 0 1-1 0Zm2-17a5 5 0 0 0-5 3 5 5 0 0 0 4 6 6 6 0 0 0 1 0 5 5 0 0 0 5-3 4 4 0 0 0-1-3 5 5 0 0 0-3-3 6 6 0 0 0-1 0Z"/><path d="M154 158a26 26 0 0 0-10-5 30 30 0 0 0-8-1 40 40 0 0 0-4 0 26 26 0 0 1-2-5 23 23 0 0 1-1-12 15 15 0 0 1 7-8 23 23 0 0 1 12-4 19 19 0 0 1 8 2 21 21 0 0 1 7 5 16 16 0 0 1 3 5 12 12 0 0 1 1 6 18 18 0 0 1-3 7 21 21 0 0 1-4 6 24 24 0 0 1-6 4Zm-18-7a31 31 0 0 1 9 1 27 27 0 0 1 9 5 24 24 0 0 0 6-4 20 20 0 0 0 4-5 17 17 0 0 0 2-7 11 11 0 0 0-1-6 15 15 0 0 0-3-4 20 20 0 0 0-6-5 18 18 0 0 0-8-2 22 22 0 0 0-12 4 14 14 0 0 0-6 8 22 22 0 0 0 1 10 26 26 0 0 0 2 5h3Z"/><path d="M154 159a2 2 0 0 1-1 0 25 25 0 0 0-9-5 29 29 0 0 0-8-1 38 38 0 0 0-3 0 2 2 0 0 1-2-1c-1 0-5-8-3-17 2-8 10-13 20-13a21 21 0 0 1 9 2 23 23 0 0 1 7 5 15 15 0 0 1 4 12 19 19 0 0 1-2 8 22 22 0 0 1-5 6 25 25 0 0 1-6 4 2 2 0 0 1-1 0Zm-18-10a32 32 0 0 1 9 1 28 28 0 0 1 9 5 23 23 0 0 0 5-3 18 18 0 0 0 3-5 15 15 0 0 0 2-6v-1a10 10 0 0 0 0-4 13 13 0 0 0-3-4 18 18 0 0 0-13-6 20 20 0 0 0-11 3 12 12 0 0 0-5 7c-2 5 0 11 1 13h3Zm-60-24a2 2 0 0 1-2-2l-1-5a2 2 0 0 1 0-2 24 24 0 0 1 4-5 21 21 0 0 1 6-4 17 17 0 0 1 7-1 22 22 0 0 1 12 3 2 2 0 0 1 1 2v3a13 13 0 0 1-1 4 2 2 0 0 1-3 1 35 35 0 0 0-9-1 18 18 0 0 0-6 1 12 12 0 0 0-4 2 9 9 0 0 0-2 3 2 2 0 0 1-2 1Zm1-7a16 16 0 0 1 5-3 22 22 0 0 1 8-1 37 37 0 0 1 8 1 24 24 0 0 0 1-3 17 17 0 0 0-9-2c-7 0-12 6-13 8Z"/><path d="M166 127a2 2 0 0 1-2 0 33 33 0 0 0-6-5 34 34 0 0 0-7-3 30 30 0 0 0-18-1 2 2 0 0 1-2-1 13 13 0 0 1-1-4v-3a2 2 0 0 1 1-2 25 25 0 0 1 13-4 24 24 0 0 1 16 7 22 22 0 0 1 8 14 2 2 0 0 1-2 2Zm-24-14a34 34 0 0 1 10 2 38 38 0 0 1 8 4l2 1a20 20 0 0 0-18-12 21 21 0 0 0-10 3 24 24 0 0 0 0 3 34 34 0 0 1 8-1Zm-6 124-4-1a31 31 0 0 0 0-13 13 13 0 0 0-2-4l4-2a16 16 0 0 1 2 5 29 29 0 0 1 1 6 42 42 0 0 1-1 9Z"/></g></g>
</svg>